<mxfile host="Electron" modified="2023-08-24T02:20:33.981Z" agent="Mozilla/5.0 (Windows NT 10.0; Win64; x64) AppleWebKit/537.36 (KHTML, like Gecko) draw.io/21.6.8 Chrome/114.0.5735.289 Electron/25.5.0 Safari/537.36" etag="NQTee4BOOOvQM5xqSgDK" version="21.6.8" type="device">
  <diagram name="第 1 页" id="a_q8hOg4LT2aydWftlRZ">
    <mxGraphModel dx="1418" dy="828" grid="1" gridSize="10" guides="1" tooltips="1" connect="1" arrows="1" fold="1" page="1" pageScale="1" pageWidth="827" pageHeight="1169" math="0" shadow="0">
      <root>
        <mxCell id="0" />
        <mxCell id="1" parent="0" />
        <mxCell id="xm9shnRIB7Id6ECnDcKJ-46" value="" style="edgeStyle=orthogonalEdgeStyle;rounded=0;orthogonalLoop=1;jettySize=auto;html=1;fillColor=#f0a30a;strokeColor=#FFB570;strokeWidth=2;" parent="1" source="xm9shnRIB7Id6ECnDcKJ-7" target="xm9shnRIB7Id6ECnDcKJ-33" edge="1">
          <mxGeometry relative="1" as="geometry" />
        </mxCell>
        <mxCell id="xm9shnRIB7Id6ECnDcKJ-7" value="" style="shape=card;whiteSpace=wrap;html=1;direction=south;" parent="1" vertex="1">
          <mxGeometry x="360" y="826" width="590" height="70" as="geometry" />
        </mxCell>
        <mxCell id="xm9shnRIB7Id6ECnDcKJ-2" value="&lt;font style=&quot;font-size: 18px;&quot;&gt;ERP系统&lt;/font&gt;" style="rounded=1;whiteSpace=wrap;html=1;movable=1;resizable=1;rotatable=1;deletable=1;editable=1;locked=0;connectable=1;fillColor=#d5e8d4;strokeColor=#82b366;" parent="1" vertex="1">
          <mxGeometry x="381" y="842" width="120" height="40" as="geometry" />
        </mxCell>
        <mxCell id="xm9shnRIB7Id6ECnDcKJ-13" value="&lt;font style=&quot;font-size: 18px;&quot;&gt;爬虫数据&lt;/font&gt;" style="rounded=1;whiteSpace=wrap;html=1;movable=1;resizable=1;rotatable=1;deletable=1;editable=1;locked=0;connectable=1;fillColor=#d5e8d4;strokeColor=#82b366;" parent="1" vertex="1">
          <mxGeometry x="661" y="841" width="120" height="40" as="geometry" />
        </mxCell>
        <mxCell id="xm9shnRIB7Id6ECnDcKJ-14" value="&lt;span style=&quot;font-size: 18px;&quot;&gt;电商平台数据&lt;/span&gt;" style="rounded=1;whiteSpace=wrap;html=1;movable=1;resizable=1;rotatable=1;deletable=1;editable=1;locked=0;connectable=1;fillColor=#d5e8d4;strokeColor=#82b366;" parent="1" vertex="1">
          <mxGeometry x="521" y="842" width="120" height="40" as="geometry" />
        </mxCell>
        <mxCell id="xm9shnRIB7Id6ECnDcKJ-15" value="&lt;font style=&quot;font-size: 18px;&quot;&gt;人工整理&lt;/font&gt;" style="rounded=1;whiteSpace=wrap;html=1;movable=1;resizable=1;rotatable=1;deletable=1;editable=1;locked=0;connectable=1;fillColor=#d5e8d4;strokeColor=#82b366;" parent="1" vertex="1">
          <mxGeometry x="801" y="842" width="120" height="40" as="geometry" />
        </mxCell>
        <mxCell id="xm9shnRIB7Id6ECnDcKJ-18" value="" style="shape=card;whiteSpace=wrap;html=1;direction=south;" parent="1" vertex="1">
          <mxGeometry x="960" y="250" width="110" height="647" as="geometry" />
        </mxCell>
        <mxCell id="xm9shnRIB7Id6ECnDcKJ-20" value="&lt;font style=&quot;font-size: 24px;&quot;&gt;数据开发与治理&lt;/font&gt;" style="text;html=1;strokeColor=#FFFFFF;fillColor=#fad7ac;align=center;verticalAlign=middle;whiteSpace=wrap;rounded=0;" parent="1" vertex="1">
          <mxGeometry x="1090" y="250" width="40" height="645" as="geometry" />
        </mxCell>
        <mxCell id="xm9shnRIB7Id6ECnDcKJ-25" value="&lt;font style=&quot;font-size: 18px;&quot;&gt;DataWorks&lt;/font&gt;" style="text;html=1;strokeColor=none;fillColor=none;align=center;verticalAlign=middle;whiteSpace=wrap;rounded=0;" parent="1" vertex="1">
          <mxGeometry x="965" y="280" width="100" height="30" as="geometry" />
        </mxCell>
        <mxCell id="xm9shnRIB7Id6ECnDcKJ-101" value="" style="edgeStyle=orthogonalEdgeStyle;rounded=0;orthogonalLoop=1;jettySize=auto;html=1;entryX=1;entryY=0.5;entryDx=0;entryDy=0;entryPerimeter=0;fontColor=#000000;strokeColor=#FFB570;strokeWidth=2;" parent="1" source="xm9shnRIB7Id6ECnDcKJ-33" target="xm9shnRIB7Id6ECnDcKJ-49" edge="1">
          <mxGeometry relative="1" as="geometry" />
        </mxCell>
        <mxCell id="xm9shnRIB7Id6ECnDcKJ-33" value="" style="shape=card;whiteSpace=wrap;html=1;direction=south;" parent="1" vertex="1">
          <mxGeometry x="360" y="729" width="590" height="71" as="geometry" />
        </mxCell>
        <mxCell id="xm9shnRIB7Id6ECnDcKJ-35" value="&lt;span style=&quot;font-size: 18px;&quot;&gt;数据集成（离线）DataWorks Sync Job&lt;/span&gt;" style="rounded=1;whiteSpace=wrap;html=1;movable=1;resizable=1;rotatable=1;deletable=1;editable=1;locked=0;connectable=1;fillColor=#e1d5e7;strokeColor=#9673a6;" parent="1" vertex="1">
          <mxGeometry x="410" y="740" width="190" height="50" as="geometry" />
        </mxCell>
        <mxCell id="xm9shnRIB7Id6ECnDcKJ-36" value="&lt;span style=&quot;font-size: 18px;&quot;&gt;数据集成（实时）cdc、kafka&lt;/span&gt;" style="rounded=1;whiteSpace=wrap;html=1;movable=1;resizable=1;rotatable=1;deletable=1;editable=1;locked=0;connectable=1;fillColor=#e1d5e7;strokeColor=#9673a6;" parent="1" vertex="1">
          <mxGeometry x="701" y="740" width="190" height="50" as="geometry" />
        </mxCell>
        <mxCell id="xm9shnRIB7Id6ECnDcKJ-49" value="" style="verticalLabelPosition=bottom;verticalAlign=top;html=1;shape=card;whiteSpace=wrap;size=20;arcSize=12;direction=south;" parent="1" vertex="1">
          <mxGeometry x="360" y="250" width="590" height="458" as="geometry" />
        </mxCell>
        <mxCell id="xm9shnRIB7Id6ECnDcKJ-139" style="edgeStyle=elbowEdgeStyle;rounded=0;orthogonalLoop=1;jettySize=auto;html=1;entryX=1.022;entryY=0.167;entryDx=0;entryDy=0;entryPerimeter=0;strokeColor=#FFB570;strokeWidth=2;" parent="1" source="xm9shnRIB7Id6ECnDcKJ-50" target="xm9shnRIB7Id6ECnDcKJ-87" edge="1">
          <mxGeometry relative="1" as="geometry" />
        </mxCell>
        <mxCell id="xm9shnRIB7Id6ECnDcKJ-50" value="" style="verticalLabelPosition=bottom;verticalAlign=top;html=1;shape=card;whiteSpace=wrap;size=20;arcSize=12;direction=south;" parent="1" vertex="1">
          <mxGeometry x="800" y="370" width="140" height="327" as="geometry" />
        </mxCell>
        <mxCell id="xm9shnRIB7Id6ECnDcKJ-81" value="&lt;font style=&quot;font-size: 18px;&quot;&gt;实时计算Flink&lt;/font&gt;" style="text;html=1;strokeColor=none;fillColor=none;align=center;verticalAlign=middle;whiteSpace=wrap;rounded=0;fontColor=#FFB570;" parent="1" vertex="1">
          <mxGeometry x="807.5" y="375" width="115" height="30" as="geometry" />
        </mxCell>
        <mxCell id="xm9shnRIB7Id6ECnDcKJ-131" style="rounded=0;orthogonalLoop=1;jettySize=auto;html=1;entryX=1.013;entryY=0.868;entryDx=0;entryDy=0;entryPerimeter=0;edgeStyle=elbowEdgeStyle;strokeWidth=2;strokeColor=#FFB570;" parent="1" source="xm9shnRIB7Id6ECnDcKJ-116" target="xm9shnRIB7Id6ECnDcKJ-105" edge="1">
          <mxGeometry relative="1" as="geometry" />
        </mxCell>
        <mxCell id="xm9shnRIB7Id6ECnDcKJ-116" value="" style="shape=card;whiteSpace=wrap;html=1;direction=south;" parent="1" vertex="1">
          <mxGeometry x="370" y="369" width="420" height="328" as="geometry" />
        </mxCell>
        <mxCell id="xm9shnRIB7Id6ECnDcKJ-83" value="&lt;span style=&quot;font-size: 18px;&quot;&gt;下游存储系统&lt;/span&gt;" style="rounded=1;whiteSpace=wrap;html=1;movable=1;resizable=1;rotatable=1;deletable=1;editable=1;locked=0;connectable=1;fillColor=#b1ddf0;strokeColor=#10739e;" parent="1" vertex="1">
          <mxGeometry x="812.5" y="429" width="115" height="40" as="geometry" />
        </mxCell>
        <mxCell id="xm9shnRIB7Id6ECnDcKJ-149" value="" style="edgeStyle=orthogonalEdgeStyle;rounded=0;orthogonalLoop=1;jettySize=auto;html=1;strokeWidth=2;strokeColor=#FFB570;" parent="1" source="xm9shnRIB7Id6ECnDcKJ-84" target="xm9shnRIB7Id6ECnDcKJ-83" edge="1">
          <mxGeometry relative="1" as="geometry" />
        </mxCell>
        <mxCell id="xm9shnRIB7Id6ECnDcKJ-84" value="&lt;span style=&quot;font-size: 18px;&quot;&gt;流数据处理&lt;/span&gt;" style="rounded=1;whiteSpace=wrap;html=1;movable=1;resizable=1;rotatable=1;deletable=1;editable=1;locked=0;connectable=1;fillColor=#b1ddf0;strokeColor=#10739e;" parent="1" vertex="1">
          <mxGeometry x="812.5" y="523" width="115" height="40" as="geometry" />
        </mxCell>
        <mxCell id="xm9shnRIB7Id6ECnDcKJ-148" value="" style="edgeStyle=orthogonalEdgeStyle;rounded=0;orthogonalLoop=1;jettySize=auto;html=1;strokeWidth=2;strokeColor=#FFB570;" parent="1" source="xm9shnRIB7Id6ECnDcKJ-85" target="xm9shnRIB7Id6ECnDcKJ-84" edge="1">
          <mxGeometry relative="1" as="geometry" />
        </mxCell>
        <mxCell id="xm9shnRIB7Id6ECnDcKJ-85" value="&lt;span style=&quot;font-size: 18px;&quot;&gt;流数据收集&lt;/span&gt;" style="rounded=1;whiteSpace=wrap;html=1;movable=1;resizable=1;rotatable=1;deletable=1;editable=1;locked=0;connectable=1;fillColor=#b1ddf0;strokeColor=#10739e;" parent="1" vertex="1">
          <mxGeometry x="812.5" y="617" width="115" height="40" as="geometry" />
        </mxCell>
        <mxCell id="xm9shnRIB7Id6ECnDcKJ-135" style="edgeStyle=elbowEdgeStyle;rounded=0;orthogonalLoop=1;jettySize=auto;html=1;entryX=1.038;entryY=0.231;entryDx=0;entryDy=0;entryPerimeter=0;strokeColor=#FFB570;strokeWidth=2;" parent="1" source="xm9shnRIB7Id6ECnDcKJ-87" target="xm9shnRIB7Id6ECnDcKJ-105" edge="1">
          <mxGeometry relative="1" as="geometry" />
        </mxCell>
        <mxCell id="xm9shnRIB7Id6ECnDcKJ-87" value="" style="shape=card;whiteSpace=wrap;html=1;direction=south;" parent="1" vertex="1">
          <mxGeometry x="520" y="262" width="420" height="90" as="geometry" />
        </mxCell>
        <mxCell id="xm9shnRIB7Id6ECnDcKJ-88" value="&lt;font color=&quot;#ffb570&quot; style=&quot;font-size: 18px;&quot;&gt;Hologres交互分析&lt;/font&gt;" style="text;html=1;strokeColor=none;fillColor=none;align=center;verticalAlign=middle;whiteSpace=wrap;rounded=0;" parent="1" vertex="1">
          <mxGeometry x="520" y="258" width="160" height="30" as="geometry" />
        </mxCell>
        <mxCell id="xm9shnRIB7Id6ECnDcKJ-89" value="&lt;font style=&quot;font-size: 18px;&quot;&gt;业务报表&lt;/font&gt;" style="rounded=1;whiteSpace=wrap;html=1;movable=1;resizable=1;rotatable=1;deletable=1;editable=1;locked=0;connectable=1;fillColor=#d0cee2;strokeColor=#56517e;" parent="1" vertex="1">
          <mxGeometry x="531" y="298" width="90" height="40" as="geometry" />
        </mxCell>
        <mxCell id="xm9shnRIB7Id6ECnDcKJ-90" value="&lt;span style=&quot;font-size: 18px;&quot;&gt;在线分析&lt;/span&gt;" style="rounded=1;whiteSpace=wrap;html=1;movable=1;resizable=1;rotatable=1;deletable=1;editable=1;locked=0;connectable=1;fillColor=#d0cee2;strokeColor=#56517e;" parent="1" vertex="1">
          <mxGeometry x="631" y="298" width="90" height="40" as="geometry" />
        </mxCell>
        <mxCell id="xm9shnRIB7Id6ECnDcKJ-91" value="&lt;font style=&quot;font-size: 18px;&quot;&gt;应用存储&lt;/font&gt;" style="rounded=1;whiteSpace=wrap;html=1;movable=1;resizable=1;rotatable=1;deletable=1;editable=1;locked=0;connectable=1;fillColor=#d0cee2;strokeColor=#56517e;" parent="1" vertex="1">
          <mxGeometry x="731" y="298" width="90" height="40" as="geometry" />
        </mxCell>
        <mxCell id="xm9shnRIB7Id6ECnDcKJ-92" value="&lt;font style=&quot;font-size: 18px;&quot;&gt;实时分析&lt;/font&gt;" style="rounded=1;whiteSpace=wrap;html=1;movable=1;resizable=1;rotatable=1;deletable=1;editable=1;locked=0;connectable=1;fillColor=#d0cee2;strokeColor=#56517e;" parent="1" vertex="1">
          <mxGeometry x="831" y="298" width="90" height="40" as="geometry" />
        </mxCell>
        <mxCell id="xm9shnRIB7Id6ECnDcKJ-105" value="" style="shape=card;whiteSpace=wrap;html=1;direction=south;" parent="1" vertex="1">
          <mxGeometry x="360" y="160" width="590" height="74" as="geometry" />
        </mxCell>
        <mxCell id="xm9shnRIB7Id6ECnDcKJ-106" value="&lt;span style=&quot;font-size: 18px;&quot;&gt;即席查询&lt;/span&gt;" style="rounded=1;whiteSpace=wrap;html=1;movable=1;resizable=1;rotatable=1;deletable=1;editable=1;locked=0;connectable=1;fillColor=#ffe6cc;strokeColor=#d79b00;" parent="1" vertex="1">
          <mxGeometry x="381" y="177" width="120" height="40" as="geometry" />
        </mxCell>
        <mxCell id="xm9shnRIB7Id6ECnDcKJ-107" value="&lt;span style=&quot;font-size: 18px;&quot;&gt;报表展示&lt;/span&gt;" style="rounded=1;whiteSpace=wrap;html=1;movable=1;resizable=1;rotatable=1;deletable=1;editable=1;locked=0;connectable=1;fillColor=#ffe6cc;strokeColor=#d79b00;" parent="1" vertex="1">
          <mxGeometry x="521" y="177" width="120" height="40" as="geometry" />
        </mxCell>
        <mxCell id="xm9shnRIB7Id6ECnDcKJ-108" value="&lt;span style=&quot;font-size: 18px;&quot;&gt;实时大屏&lt;/span&gt;" style="rounded=1;whiteSpace=wrap;html=1;movable=1;resizable=1;rotatable=1;deletable=1;editable=1;locked=0;connectable=1;fillColor=#ffe6cc;strokeColor=#d79b00;" parent="1" vertex="1">
          <mxGeometry x="661" y="177" width="120" height="40" as="geometry" />
        </mxCell>
        <mxCell id="xm9shnRIB7Id6ECnDcKJ-110" value="&lt;span style=&quot;font-size: 18px;&quot;&gt;数据推送&lt;/span&gt;" style="rounded=1;whiteSpace=wrap;html=1;movable=1;resizable=1;rotatable=1;deletable=1;editable=1;locked=0;connectable=1;fillColor=#ffe6cc;strokeColor=#d79b00;" parent="1" vertex="1">
          <mxGeometry x="800" y="177" width="120" height="40" as="geometry" />
        </mxCell>
        <mxCell id="xm9shnRIB7Id6ECnDcKJ-118" style="edgeStyle=orthogonalEdgeStyle;rounded=0;orthogonalLoop=1;jettySize=auto;html=1;strokeColor=#FFB570;strokeWidth=2;" parent="1" source="xm9shnRIB7Id6ECnDcKJ-116" target="xm9shnRIB7Id6ECnDcKJ-87" edge="1">
          <mxGeometry relative="1" as="geometry">
            <Array as="points">
              <mxPoint x="580" y="288" />
              <mxPoint x="580" y="288" />
            </Array>
          </mxGeometry>
        </mxCell>
        <mxCell id="xm9shnRIB7Id6ECnDcKJ-80" value="&lt;font color=&quot;#ffb570&quot; style=&quot;font-size: 18px;&quot;&gt;MaxCompute云原生数仓&lt;/font&gt;" style="text;html=1;strokeColor=none;fillColor=none;align=center;verticalAlign=middle;whiteSpace=wrap;rounded=0;" parent="1" vertex="1">
          <mxGeometry x="375" y="375" width="200" height="30" as="geometry" />
        </mxCell>
        <mxCell id="xm9shnRIB7Id6ECnDcKJ-56" value="&lt;font style=&quot;font-size: 18px;&quot;&gt;ADS层&lt;/font&gt;" style="rounded=0;whiteSpace=wrap;html=1;fillColor=#f8cecc;strokeColor=#b85450;" parent="1" vertex="1">
          <mxGeometry x="420" y="418" width="150" height="30" as="geometry" />
        </mxCell>
        <mxCell id="xm9shnRIB7Id6ECnDcKJ-52" value="&lt;span style=&quot;font-size: 18px;&quot;&gt;数据管理&amp;nbsp; &amp;nbsp;数据质量&amp;nbsp; &amp;nbsp;数据监控&lt;/span&gt;" style="rounded=1;whiteSpace=wrap;html=1;movable=1;resizable=1;rotatable=1;deletable=1;editable=1;locked=0;connectable=1;fillColor=#b0e3e6;strokeColor=#0e8088;" parent="1" vertex="1">
          <mxGeometry x="385" y="650" width="390" height="40" as="geometry" />
        </mxCell>
        <mxCell id="xm9shnRIB7Id6ECnDcKJ-59" value="&lt;font style=&quot;font-size: 18px;&quot;&gt;ODS层&lt;/font&gt;" style="rounded=0;whiteSpace=wrap;html=1;fillColor=#f8cecc;strokeColor=#b85450;" parent="1" vertex="1">
          <mxGeometry x="390" y="603" width="80" height="30" as="geometry" />
        </mxCell>
        <mxCell id="xm9shnRIB7Id6ECnDcKJ-71" value="&lt;font style=&quot;font-size: 18px;&quot;&gt;离线数据数仓&lt;/font&gt;" style="text;html=1;strokeColor=none;fillColor=none;align=center;verticalAlign=middle;whiteSpace=wrap;rounded=0;" parent="1" vertex="1">
          <mxGeometry x="600" y="428" width="30" height="160" as="geometry" />
        </mxCell>
        <mxCell id="xm9shnRIB7Id6ECnDcKJ-69" value="&lt;font style=&quot;font-size: 18px;&quot;&gt;作用调度系统&lt;/font&gt;" style="rounded=1;whiteSpace=wrap;html=1;fillColor=#b0e3e6;strokeColor=#0e8088;" parent="1" vertex="1">
          <mxGeometry x="648" y="418" width="122" height="220" as="geometry" />
        </mxCell>
        <mxCell id="xm9shnRIB7Id6ECnDcKJ-61" value="" style="edgeStyle=orthogonalEdgeStyle;rounded=0;orthogonalLoop=1;jettySize=auto;html=1;strokeColor=#FFB570;dashed=1;strokeWidth=2;" parent="1" source="xm9shnRIB7Id6ECnDcKJ-59" target="xm9shnRIB7Id6ECnDcKJ-60" edge="1">
          <mxGeometry relative="1" as="geometry" />
        </mxCell>
        <mxCell id="xm9shnRIB7Id6ECnDcKJ-63" value="" style="edgeStyle=orthogonalEdgeStyle;rounded=0;orthogonalLoop=1;jettySize=auto;html=1;strokeWidth=2;strokeColor=#FFB570;" parent="1" source="xm9shnRIB7Id6ECnDcKJ-60" target="xm9shnRIB7Id6ECnDcKJ-58" edge="1">
          <mxGeometry relative="1" as="geometry" />
        </mxCell>
        <mxCell id="xm9shnRIB7Id6ECnDcKJ-62" value="" style="edgeStyle=orthogonalEdgeStyle;rounded=0;orthogonalLoop=1;jettySize=auto;html=1;strokeColor=#FFB570;strokeWidth=2;" parent="1" source="xm9shnRIB7Id6ECnDcKJ-59" target="xm9shnRIB7Id6ECnDcKJ-58" edge="1">
          <mxGeometry relative="1" as="geometry" />
        </mxCell>
        <mxCell id="xm9shnRIB7Id6ECnDcKJ-121" style="edgeStyle=orthogonalEdgeStyle;rounded=0;orthogonalLoop=1;jettySize=auto;html=1;strokeColor=#FFB570;strokeWidth=2;" parent="1" edge="1">
          <mxGeometry relative="1" as="geometry">
            <mxPoint x="437" y="533" as="sourcePoint" />
            <mxPoint x="437" y="448" as="targetPoint" />
          </mxGeometry>
        </mxCell>
        <mxCell id="xm9shnRIB7Id6ECnDcKJ-58" value="&lt;font style=&quot;font-size: 18px;&quot;&gt;DWD层&lt;/font&gt;" style="rounded=0;whiteSpace=wrap;html=1;fillColor=#f8cecc;strokeColor=#b85450;" parent="1" vertex="1">
          <mxGeometry x="420" y="533" width="150" height="30" as="geometry" />
        </mxCell>
        <mxCell id="xm9shnRIB7Id6ECnDcKJ-57" value="&lt;font style=&quot;font-size: 18px;&quot;&gt;DWS层&lt;/font&gt;" style="rounded=0;whiteSpace=wrap;html=1;fillColor=#f8cecc;strokeColor=#b85450;" parent="1" vertex="1">
          <mxGeometry x="455" y="479" width="80" height="30" as="geometry" />
        </mxCell>
        <mxCell id="xm9shnRIB7Id6ECnDcKJ-72" value="" style="shape=partialRectangle;whiteSpace=wrap;html=1;bottom=0;right=0;fillColor=none;" parent="1" vertex="1">
          <mxGeometry x="390" y="409" width="120" height="60" as="geometry" />
        </mxCell>
        <mxCell id="xm9shnRIB7Id6ECnDcKJ-64" value="" style="edgeStyle=orthogonalEdgeStyle;rounded=0;orthogonalLoop=1;jettySize=auto;html=1;strokeWidth=2;strokeColor=#FFB570;" parent="1" source="xm9shnRIB7Id6ECnDcKJ-58" target="xm9shnRIB7Id6ECnDcKJ-57" edge="1">
          <mxGeometry relative="1" as="geometry" />
        </mxCell>
        <mxCell id="xm9shnRIB7Id6ECnDcKJ-65" value="" style="edgeStyle=orthogonalEdgeStyle;rounded=0;orthogonalLoop=1;jettySize=auto;html=1;strokeWidth=2;strokeColor=#FFB570;" parent="1" source="xm9shnRIB7Id6ECnDcKJ-57" target="xm9shnRIB7Id6ECnDcKJ-56" edge="1">
          <mxGeometry relative="1" as="geometry" />
        </mxCell>
        <mxCell id="xm9shnRIB7Id6ECnDcKJ-73" value="" style="shape=partialRectangle;whiteSpace=wrap;html=1;top=0;left=0;fillColor=none;" parent="1" vertex="1">
          <mxGeometry x="515" y="583" width="120" height="60" as="geometry" />
        </mxCell>
        <mxCell id="xm9shnRIB7Id6ECnDcKJ-60" value="&lt;font style=&quot;font-size: 18px;&quot;&gt;DIM层&lt;/font&gt;" style="rounded=0;whiteSpace=wrap;html=1;fillColor=#f8cecc;strokeColor=#b85450;" parent="1" vertex="1">
          <mxGeometry x="520" y="603" width="80" height="30" as="geometry" />
        </mxCell>
        <mxCell id="xm9shnRIB7Id6ECnDcKJ-26" value="&lt;font style=&quot;font-size: 18px;&quot;&gt;数据服务&lt;/font&gt;" style="rounded=1;whiteSpace=wrap;html=1;movable=1;resizable=1;rotatable=1;deletable=1;editable=1;locked=0;connectable=1;fillColor=#dae8fc;strokeColor=#6c8ebf;" parent="1" vertex="1">
          <mxGeometry x="970" y="320" width="90" height="40" as="geometry" />
        </mxCell>
        <mxCell id="xm9shnRIB7Id6ECnDcKJ-142" value="" style="edgeStyle=orthogonalEdgeStyle;rounded=0;orthogonalLoop=1;jettySize=auto;html=1;strokeColor=#FFB570;strokeWidth=2;" parent="1" source="xm9shnRIB7Id6ECnDcKJ-27" target="xm9shnRIB7Id6ECnDcKJ-26" edge="1">
          <mxGeometry relative="1" as="geometry" />
        </mxCell>
        <mxCell id="xm9shnRIB7Id6ECnDcKJ-27" value="&lt;font style=&quot;font-size: 18px;&quot;&gt;数据分析&lt;/font&gt;" style="rounded=1;whiteSpace=wrap;html=1;movable=1;resizable=1;rotatable=1;deletable=1;editable=1;locked=0;connectable=1;fillColor=#dae8fc;strokeColor=#6c8ebf;" parent="1" vertex="1">
          <mxGeometry x="970" y="405" width="90" height="40" as="geometry" />
        </mxCell>
        <mxCell id="xm9shnRIB7Id6ECnDcKJ-143" value="" style="edgeStyle=orthogonalEdgeStyle;rounded=0;orthogonalLoop=1;jettySize=auto;html=1;strokeWidth=2;strokeColor=#FFB570;" parent="1" source="xm9shnRIB7Id6ECnDcKJ-28" target="xm9shnRIB7Id6ECnDcKJ-27" edge="1">
          <mxGeometry relative="1" as="geometry" />
        </mxCell>
        <mxCell id="xm9shnRIB7Id6ECnDcKJ-28" value="&lt;font style=&quot;font-size: 18px;&quot;&gt;数据安全&lt;/font&gt;" style="rounded=1;whiteSpace=wrap;html=1;movable=1;resizable=1;rotatable=1;deletable=1;editable=1;locked=0;connectable=1;fillColor=#dae8fc;strokeColor=#6c8ebf;" parent="1" vertex="1">
          <mxGeometry x="970" y="490" width="90" height="40" as="geometry" />
        </mxCell>
        <mxCell id="xm9shnRIB7Id6ECnDcKJ-144" value="" style="edgeStyle=orthogonalEdgeStyle;rounded=0;orthogonalLoop=1;jettySize=auto;html=1;strokeColor=#FFB570;strokeWidth=2;" parent="1" source="xm9shnRIB7Id6ECnDcKJ-29" target="xm9shnRIB7Id6ECnDcKJ-28" edge="1">
          <mxGeometry relative="1" as="geometry" />
        </mxCell>
        <mxCell id="xm9shnRIB7Id6ECnDcKJ-29" value="&lt;font style=&quot;font-size: 18px;&quot;&gt;数据治理&lt;/font&gt;" style="rounded=1;whiteSpace=wrap;html=1;movable=1;resizable=1;rotatable=1;deletable=1;editable=1;locked=0;connectable=1;fillColor=#dae8fc;strokeColor=#6c8ebf;" parent="1" vertex="1">
          <mxGeometry x="970" y="575" width="90" height="40" as="geometry" />
        </mxCell>
        <mxCell id="xm9shnRIB7Id6ECnDcKJ-145" value="" style="edgeStyle=orthogonalEdgeStyle;rounded=0;orthogonalLoop=1;jettySize=auto;html=1;strokeColor=#FFB570;strokeWidth=2;" parent="1" source="xm9shnRIB7Id6ECnDcKJ-30" target="xm9shnRIB7Id6ECnDcKJ-29" edge="1">
          <mxGeometry relative="1" as="geometry" />
        </mxCell>
        <mxCell id="xm9shnRIB7Id6ECnDcKJ-30" value="&lt;font style=&quot;font-size: 18px;&quot;&gt;数据开发&lt;/font&gt;" style="rounded=1;whiteSpace=wrap;html=1;movable=1;resizable=1;rotatable=1;deletable=1;editable=1;locked=0;connectable=1;fillColor=#dae8fc;strokeColor=#6c8ebf;" parent="1" vertex="1">
          <mxGeometry x="970" y="660" width="90" height="40" as="geometry" />
        </mxCell>
        <mxCell id="xm9shnRIB7Id6ECnDcKJ-146" value="" style="edgeStyle=orthogonalEdgeStyle;rounded=0;orthogonalLoop=1;jettySize=auto;html=1;strokeColor=#FFB570;strokeWidth=2;" parent="1" source="xm9shnRIB7Id6ECnDcKJ-31" target="xm9shnRIB7Id6ECnDcKJ-30" edge="1">
          <mxGeometry relative="1" as="geometry" />
        </mxCell>
        <mxCell id="xm9shnRIB7Id6ECnDcKJ-31" value="&lt;font style=&quot;font-size: 18px;&quot;&gt;数据建模&lt;/font&gt;" style="rounded=1;whiteSpace=wrap;html=1;movable=1;resizable=1;rotatable=1;deletable=1;editable=1;locked=0;connectable=1;fillColor=#dae8fc;strokeColor=#6c8ebf;" parent="1" vertex="1">
          <mxGeometry x="970" y="745" width="90" height="40" as="geometry" />
        </mxCell>
        <mxCell id="xm9shnRIB7Id6ECnDcKJ-147" value="" style="edgeStyle=orthogonalEdgeStyle;rounded=0;orthogonalLoop=1;jettySize=auto;html=1;strokeColor=#FFB570;strokeWidth=2;" parent="1" source="xm9shnRIB7Id6ECnDcKJ-32" target="xm9shnRIB7Id6ECnDcKJ-31" edge="1">
          <mxGeometry relative="1" as="geometry" />
        </mxCell>
        <mxCell id="xm9shnRIB7Id6ECnDcKJ-32" value="&lt;font style=&quot;font-size: 18px;&quot;&gt;数据集成&lt;/font&gt;" style="rounded=1;whiteSpace=wrap;html=1;movable=1;resizable=1;rotatable=1;deletable=1;editable=1;locked=0;connectable=1;fillColor=#dae8fc;strokeColor=#6c8ebf;" parent="1" vertex="1">
          <mxGeometry x="970" y="830" width="90" height="40" as="geometry" />
        </mxCell>
        <mxCell id="xm9shnRIB7Id6ECnDcKJ-150" value="&lt;font style=&quot;font-size: 24px;&quot;&gt;数据&lt;br&gt;来源层&lt;/font&gt;" style="text;html=1;strokeColor=none;fillColor=#fad7ac;align=center;verticalAlign=middle;whiteSpace=wrap;rounded=0;" parent="1" vertex="1">
          <mxGeometry x="250" y="826" width="90" height="70" as="geometry" />
        </mxCell>
        <mxCell id="xm9shnRIB7Id6ECnDcKJ-151" value="&lt;font style=&quot;font-size: 24px;&quot;&gt;数据&lt;br&gt;接入层&lt;/font&gt;" style="text;html=1;strokeColor=none;fillColor=#fad7ac;align=center;verticalAlign=middle;whiteSpace=wrap;rounded=0;" parent="1" vertex="1">
          <mxGeometry x="250" y="730" width="90" height="70" as="geometry" />
        </mxCell>
        <mxCell id="xm9shnRIB7Id6ECnDcKJ-152" value="&lt;font style=&quot;font-size: 24px;&quot;&gt;数据&lt;br&gt;开发层&lt;/font&gt;" style="text;html=1;strokeColor=none;fillColor=#fad7ac;align=center;verticalAlign=middle;whiteSpace=wrap;rounded=0;" parent="1" vertex="1">
          <mxGeometry x="250" y="508" width="90" height="70" as="geometry" />
        </mxCell>
        <mxCell id="xm9shnRIB7Id6ECnDcKJ-153" value="&lt;font style=&quot;font-size: 24px;&quot;&gt;数据&lt;br&gt;分析层&lt;/font&gt;" style="text;html=1;strokeColor=none;fillColor=#fad7ac;align=center;verticalAlign=middle;whiteSpace=wrap;rounded=0;" parent="1" vertex="1">
          <mxGeometry x="250" y="280" width="90" height="70" as="geometry" />
        </mxCell>
        <mxCell id="xm9shnRIB7Id6ECnDcKJ-154" value="&lt;font style=&quot;font-size: 24px;&quot;&gt;数据&lt;br&gt;消费层&lt;/font&gt;" style="text;html=1;strokeColor=none;fillColor=#fad7ac;align=center;verticalAlign=middle;whiteSpace=wrap;rounded=0;" parent="1" vertex="1">
          <mxGeometry x="250" y="164" width="90" height="70" as="geometry" />
        </mxCell>
      </root>
    </mxGraphModel>
  </diagram>
</mxfile>
